inDegrees=yes
name=ik_lifting_orientations
DataType=double
version=3
OpenSimVersion=4.5-2024-01-10-34fd6af
endheader
time	pelvis_tilt	pelvis_list	pelvis_rotation	pelvis_tx	pelvis_ty	pelvis_tz	hip_flexion_r	hip_adduction_r	hip_rotation_r	knee_angle_r	knee_angle_r_beta	ankle_angle_r	subtalar_angle_r	mtp_angle_r	hip_flexion_l	hip_adduction_l	hip_rotation_l	knee_angle_l	knee_angle_l_beta	ankle_angle_l	subtalar_angle_l	mtp_angle_l	lumbar_extension	lumbar_bending	lumbar_rotation	arm_flex_r	arm_add_r	arm_rot_r	elbow_flex_r	pro_sup_r	wrist_flex_r	wrist_dev_r	arm_flex_l	arm_add_l	arm_rot_l	elbow_flex_l	pro_sup_l	wrist_flex_l	wrist_dev_l
2.34	-4.704441447676865	-9.487024096116087	-10.4792914592944	0	0.9399999999597537	0	44.9258655348307	-10.00566730671273	0	59.98989994783335	1.047021272031667	-4.99915466056872	0	0	44.9258655348307	-10.00566730671273	0	59.98989994783335	1.047021272031667	-4.99915466056872	0	0	1.315107647189353	-6.15402556137965	3.252702991447604	139.4905495571487	27.67161043493413	-39.02368229639977	4.042858468331654	45.03205348424716	0	0	0	-13.83938994691923	0	74.93240417852486	45.03205348422958	0	0
2.35	-4.689609221572498	-9.488446567348982	-10.44661452919584	0	0.9399999999597537	0	44.92612319446243	-10.00561885303385	0	59.98993499589723	1.047021883735778	-4.999163375952988	0	0	44.92612319446243	-10.00561885303385	0	59.98993499589723	1.047021883735778	-4.999163375952988	0	0	0.4287753118947077	-5.795631616001227	2.735629654871203	138.8116574435641	28.64113874729967	-39.01871771119487	4.612844173927423	45.03182132440194	0	0	0	-13.84182515408493	0	74.93263972259287	45.03182132438447	0	0
2.36	-4.718068371772599	-9.474858456472507	-10.48065398972632	0	0.9399999999597537	0	44.9261434151209	-10.0056134811565	0	59.98993718873863	1.04702192200808	-4.999164419035107	0	0	44.9261434151209	-10.0056134811565	0	59.98993718873863	1.04702192200808	-4.999164419035107	0	0	0.7559277452343345	-4.830648385124671	2.068461638587574	138.4946780313249	29.93223900753187	-39.78782262151957	4.544341876658652	45.03179725803709	0	0	0	-13.84198747642658	0	74.93265820763845	45.03179725801964	0	0
2.37	-3.561593692366256	-9.46809349659263	-10.63587307913649	0	0.9399999999597537	0	44.9261702643316	-10.00560639056385	0	59.98994011278	1.047021973042229	-4.999165794035054	0	0	44.9261702643316	-10.00560639056385	0	59.98994011278	1.047021973042229	-4.999165794035054	0	0	-0.3312767372574537	-5.025946637191852	2.426907132598544	138.2056732934749	30.06643996257813	-39.37235795766194	3.983713784744864	45.03176545571795	0	0	0	-13.84220368705506	0	74.93268275228402	45.03176545570051	0	0
2.38	-3.5700315132677	-9.473814271817215	-10.63536277378544	0	0.9399999999597537	0	44.92722976304078	-10.00541516737247	0	59.99008491295411	1.047024500282025	-4.999199647653333	0	0	44.92722976304078	-10.00541516737247	0	59.99008491295411	1.047024500282025	-4.999199647653333	0	0	1.075128418512912	-4.78384201528101	2.538322059120246	134.5576976470038	30.79091564874906	-38.95237286332903	5.124374760926746	45.03083877302456	0	0	0	-13.85231083672396	0	74.93365131168524	45.03083877300767	0	0
2.39	-3.559351753910532	-9.458727455259101	-10.63205534156838	0	0.9399999999597537	0	44.92825090010383	-10.00523480646263	0	59.99022411724338	1.047026929855206	-4.9992313208129	0	0	44.92825090010383	-10.00523480646263	0	59.99022411724338	1.047026929855206	-4.9992313208129	0	0	1.060717042775931	-4.794483661878005	2.537657651119276	132.3221612193329	31.41867389521192	-37.95408327463161	7.120936469567435	45.029959579523	0	0	0	-13.862100006038	0	74.9345848021571	45.02995957950657	0	0
2.4	-3.555699397881777	-9.476223683973053	-10.6485126112075	0	0.9399999999597537	0	44.92901251344118	-10.00510232424459	0	59.99032889414791	1.04702875855717	-4.999254547534457	0	0	44.92901251344118	-10.00510232424459	0	59.99032889414791	1.04702875855717	-4.999254547534457	0	0	0.51696658388703	-3.394866313528498	1.351194625572889	129.7291201802579	33.9336675869355	-36.56061367334696	9.615881375676002	45.02931233232622	0	0	0	-13.86946249861975	0	74.93528104447977	45.02931233231018	0	0
2.41	-4.194304495847281	-8.750680296474686	-11.15263748027682	0	0.9399999999597537	0	44.93003315955286	-10.0049298423539	0	59.99047014256397	1.047031223807093	-4.999284508563696	0	0	44.93003315955286	-10.0049298423539	0	59.99047014256397	1.047031223807093	-4.999284508563696	0	0	2.710083713206753	-3.732003519845024	1.857740197511442	125.824214608105	34.64281854142006	-35.84592286339272	10.85720024524676	45.02846367594984	0	0	0	-13.87941618794309	0	74.93621408627409	45.02846367593428	0	0
2.42	-4.191201455503361	-8.754540542539585	-11.14070882550438	0	0.9399999999597537	0	44.93007166258182	-10.00492033926218	0	59.99047430941697	1.047031296532398	-4.999286307974563	0	0	44.93007166258182	-10.00492033926218	0	59.99047430941697	1.047031296532398	-4.999286307974563	0	0	2.706480324706319	-3.725841011793621	1.845517983466018	124.0744482991988	34.97069588528116	-34.46826074057545	11.57535642346087	45.02842029104648	0	0	0	-13.87973138341107	0	74.93624928445446	45.02842029103099	0	0
2.43	-3.714256818704933	-8.222324933087496	-11.6644536047095	0	0.9399999999597537	0	44.93089031434597	-10.0047818614957	0	59.99058698000805	1.047033263005182	-4.999310371407361	0	0	44.93089031434597	-10.0047818614957	0	59.99058698000805	1.047033263005182	-4.999310371407361	0	0	1.838819964800454	-2.924014118921573	1.222692403980589	120.6540847030489	37.38839536353952	-32.1652671811509	12.81995353725748	45.02773914251815	0	0	0	-13.88771393949114	0	74.93699766952257	45.02773914250304	0	0
2.44	-3.71930879770774	-8.232795113978606	-11.66395447388783	0	0.9399999999597537	0	44.93103859835375	-10.00474625810776	0	59.99060308068967	1.047033544015088	-4.999317049009224	0	0	44.93103859835375	-10.00474625810776	0	59.99060308068967	1.047033544015088	-4.999317049009224	0	0	2.56558937855901	-2.772534772091374	1.270372576739104	117.1042831341145	37.7513007651017	-30.1439854814838	15.07187250524757	45.02757544655958	0	0	0	-13.88893704143427	0	74.93713322580878	45.0275754465446	0	0
2.45	-3.715828876038015	-8.230296820520039	-11.65733776005195	0	0.9399999999597537	0	44.93149065730676	-10.0046700885424	0	59.99066477352146	1.047034620758128	-4.99933024649191	0	0	44.93149065730676	-10.0046700885424	0	59.99066477352146	1.047034620758128	-4.99933024649191	0	0	3.29588936630573	-2.635906688838841	1.310754907267399	113.7034779137352	37.82642016031708	-28.50762392638359	14.73031879356657	45.02720012838741	0	0	0	-13.89334109741025	0	74.9375464835384	45.02720012837262	0	0
2.46	-3.725433977253856	-8.2213872448415	-11.65598698324512	0	0.9399999999597537	0	44.93153712716985	-10.00465900495957	0	59.99066980958261	1.047034708653976	-4.999332319636544	0	0	44.93153712716985	-10.00465900495957	0	59.99066980958261	1.047034708653976	-4.999332319636544	0	0	2.771925645865172	-1.220622559530373	0.04400456481998432	111.444648427811	39.55751950024455	-25.63588947590996	15.17879571838094	45.02714907248271	0	0	0	-13.89372497235213	0	74.9375889647355	45.02714907246798	0	0
2.47	-3.724269079824218	-8.223812443075111	-11.66113461981721	0	0.9399999999597537	0	44.93216095227234	-10.00455706360477	0	59.99075553287999	1.047036204807761	-4.99934980393066	0	0	44.93216095227234	-10.00455706360477	0	59.99075553287999	1.047036204807761	-4.99934980393066	0	0	2.778939437879835	-1.223491458545663	0.04010325991859629	105.8309810197775	39.74503321514653	-22.12989350062098	18.26816378431178	45.02664289715192	0	0	0	-13.89985677139782	0	74.93815924559026	45.02664289713743	0	0
2.48	-3.138688464555517	-8.217452933322924	-11.75742319773235	0	0.9399999999597537	0	44.93267401440898	-10.00447334801726	0	59.99082577318809	1.047037430732405	-4.999364151819445	0	0	44.93267401440898	-10.00447334801726	0	59.99082577318809	1.047037430732405	-4.999364151819445	0	0	2.8393277736288	-0.586579654257447	-0.2729627792668242	102.0108038696689	40.17505518241834	-19.70723291156399	17.94450875787976	45.02622702028926	0	0	0	-13.90490050494419	0	74.93862827050324	45.02622702027497	0	0
2.49	-2.559404107394825	-8.210442023472117	-11.86340595447665	0	0.9399999999597537	0	44.93319795583733	-10.00438829997671	0	59.99089730810577	1.047038679252249	-4.999378695989546	0	0	44.93319795583733	-10.00438829997671	0	59.99089730810577	1.047038679252249	-4.999378695989546	0	0	2.636200113209963	0.2733222005866939	-0.8216726515858523	95.51918915356936	40.36934939028082	-14.73819005966068	19.20450912374086	45.02580387956006	0	0	0	-13.91005585847993	0	74.9391072409197	45.025803879546	0	0
2.5	-3.174654985112963	-7.488630091649005	-12.38119349769045	0	0.9399999999597537	0	44.93325162596739	-10.00437594353379	0	59.99090311932367	1.047038780677135	-4.999380978420781	0	0	44.93325162596739	-10.00437594353379	0	59.99090311932367	1.047038780677135	-4.999380978420781	0	0	3.38634918874587	-0.2854482679521674	-0.357880779702996	91.08313804994144	39.55561002433694	-12.09616883126495	19.74082931777027	45.02574643211543	0	0	0	-13.91050327356972	0	74.93915630436477	45.02574643210139	0	0
2.51	-3.178264556252305	-7.491580267786675	-12.37218415430283	0	0.9399999999597537	0	44.93329247273292	-10.00436655724964	0	59.99090754329245	1.047038857889956	-4.999382710875028	0	0	44.93329247273292	-10.00436655724964	0	59.99090754329245	1.047038857889956	-4.999382710875028	0	0	2.530217725011238	0.1924280635826083	-0.9131852041513976	86.11759732674776	38.85381747574248	-8.035131949748589	20.19175655937705	45.02570276999659	0	0	0	-13.91084393276827	0	74.93919364511731	45.02570276998257	0	0
2.52	-3.182017752966429	-7.491747396392639	-12.37909063833074	0	0.9399999999597537	0	44.93333370074058	-10.00435709976617	0	59.99091200980373	1.047038935845284	-4.999384455252149	0	0	44.93333370074058	-10.00435709976617	0	59.99091200980373	1.047038935845284	-4.999384455252149	0	0	2.542425487633828	0.1961992903660111	-0.9052976692933336	80.97764124444778	37.25615597334477	-5.049002942333026	20.93703071434431	45.02565875525285	0	0	0	-13.91118791138342	0	74.93923133438886	45.02565875523885	0	0
2.53	-1.519774006533585	-6.958916559976357	-13.13039955736893	0	0.9399999999597537	0	44.93337367695494	-10.00434794986366	0	59.99091634354578	1.047039011483352	-4.999386141546589	0	0	44.93337367695494	-10.00434794986366	0	59.99091634354578	1.047039011483352	-4.999386141546589	0	0	1.404502473186706	0.3267790316458581	-0.6441810491427631	74.74180683232507	36.46120706007588	-1.667017947985933	21.10546412358213	45.02561614735295	0	0	0	-13.91152167225792	0	74.93926787931282	45.02561614733897	0	0
2.54	-1.522009352264928	-6.964005421164213	-13.1233280365576	0	0.9399999999597537	0	44.93341343253304	-10.00433885904971	0	59.99092065202488	1.047039086680497	-4.999387816059741	0	0	44.93341343253304	-10.00433885904971	0	59.99092065202488	1.047039086680497	-4.999387816059741	0	0	1.726891929257532	0.7295653755350654	-0.9379233323842173	70.28802272033971	34.64855096054548	1.250114442910132	20.50011363186972	45.02557380017924	0	0	0	-13.91185358342075	0	74.93930422253858	45.02557380016527	0	0
2.55	-1.526632845327176	-6.965918807571301	-13.12436099560155	0	0.9399999999597537	0	44.93345395103746	-10.00432960763177	0	59.99092504382978	1.047039163331953	-4.999389519075216	0	0	44.93345395103746	-10.00432960763177	0	59.99092504382978	1.047039163331953	-4.999389519075216	0	0	2.062657122856788	1.154505094186796	-1.216153769239199	64.41032661243483	32.43015910717394	4.26021334158752	20.92735110980278	45.02553068609153	0	0	0	-13.91219196686031	0	74.9393412632062	45.02553068607761	0	0
2.56	-1.229809310586007	-6.591351452208292	-13.50858468290017	0	0.9399999999597537	0	44.93380997024737	-10.00427208760411	0	59.99097329884421	1.047040005540836	-4.999399319999866	0	0	44.93380997024737	-10.00427208760411	0	59.99097329884421	1.047040005540836	-4.999399319999866	0	0	2.22649497426484	1.707200098590122	-1.528595688150037	58.47860900533472	29.75995727823492	7.985269659108043	21.3212489162986	45.02524389519395	0	0	0	-13.91569138746426	0	74.93966672452579	45.0252438951802	0	0
2.57	-0.9312510233019247	-6.220155387364084	-13.89594442150148	0	0.9399999999597537	0	44.93405920072661	-10.00423138560278	0	59.99100680724988	1.047040590372842	-4.999406272910806	0	0	44.93405920072661	-10.00423138560278	0	59.99100680724988	1.047040590372842	-4.999406272910806	0	0	1.590844831332672	1.537632610735848	-1.382243281907722	55.43766599024102	27.25872325986579	10.03350820123995	20.45738192492935	45.02504140618073	0	0	0	-13.9181303717006	0	74.93989456301169	45.02504140616711	0	0
